<?xml version="1.0" encoding="iso-8859-1"?>
<!-- Generator: Adobe Illustrator 23.0.1, SVG Export Plug-In . SVG Version: 6.00 Build 0)  -->
<svg version="1.1" xmlns="http://www.w3.org/2000/svg" xmlns:xlink="http://www.w3.org/1999/xlink" x="0px" y="0px"
	 viewBox="0 0 512 512" style="enable-background:new 0 0 512 512;" xml:space="preserve">
<g id="WORKSPACE" style="display:none;">
	
		<line id="XMLID_745_" style="display:inline;fill:none;stroke:#A01127;stroke-miterlimit:10;" x1="486" y1="-4" x2="486" y2="516"/>
	<line id="XMLID_744_" style="display:inline;fill:none;stroke:#A01127;stroke-miterlimit:10;" x1="-4" y1="26" x2="516" y2="26"/>
	
		<line id="XMLID_743_" style="display:inline;fill:none;stroke:#A01127;stroke-miterlimit:10;" x1="-4" y1="486" x2="516" y2="486"/>
	<line id="XMLID_742_" style="display:inline;fill:none;stroke:#A01127;stroke-miterlimit:10;" x1="26" y1="-4" x2="26" y2="516"/>
</g>
<g id="BULINE">
	<circle id="XMLID_783_" style="fill:#F7BB38;" cx="256" cy="256" r="256"/>
</g>
<g id="Icons">
	<g id="XMLID_330_">
		<path id="XMLID_1966_" style="fill:#3E436D;" d="M428.14,254.4v12.95h27.89c10.78,0,19.52,8.74,19.52,19.51
			c0,10.78-8.74,19.52-19.52,19.52h-27.89v139.11C382.67,486.81,322.28,512,256,512c-18.36,0-36.27-1.93-53.53-5.61
			c-44.05-9.37-83.91-30.07-116.38-58.9c-0.01-0.01-0.01-0.01-0.01-0.01v-141.1H60.07c-4.39,0-8.44-1.44-11.69-3.88
			c-0.75-0.56-1.46-1.18-2.12-1.84c-3.53-3.53-5.71-8.4-5.71-13.79c0-5.39,2.18-10.27,5.71-13.8c0.66-0.66,1.37-1.28,2.12-1.84
			c0,0,0-0.01,0.01-0.01c0.5-0.37,1.02-0.72,1.55-1.04c0,0,0-0.01,0.01-0.01c0.53-0.32,1.08-0.62,1.65-0.89
			c0.93-0.45,1.91-0.83,2.93-1.13c0.45-0.14,0.92-0.26,1.39-0.35c0.12-0.04,0.25-0.06,0.39-0.08c0.53-0.11,1.08-0.2,1.63-0.25
			c0.7-0.08,1.41-0.12,2.13-0.12h26.01V254.4H60.07c-10.79,0-19.52-8.74-19.52-19.52c0-5.38,2.18-10.26,5.71-13.79
			c2.2-2.21,4.94-3.89,8-4.84c0,0,0,0,0.01,0c0.6-0.2,1.22-0.36,1.86-0.48c0,0,0,0,0.01,0c0.63-0.14,1.27-0.23,1.92-0.3
			c0.66-0.07,1.33-0.1,2.01-0.1h26.02c0-1.09,0.02-2.18,0.04-3.26c0.07-3.26,0.22-6.49,0.47-9.69H60.07
			c-4.39,0-8.44-1.44-11.69-3.88c-0.75-0.56-1.46-1.18-2.12-1.84c-3.53-3.53-5.71-8.41-5.71-13.8c0-10.78,8.73-19.51,19.52-19.51
			h30.96c1.09,0,2.15,0.11,3.18,0.28c0.35-1.08,0.7-2.15,1.07-3.22c2.55-7.47,5.61-14.71,9.14-21.67c0.51-1,1.02-1.99,1.55-2.98
			c1.56-2.95,3.2-5.85,4.93-8.69c0,0,0.01,0,0.01-0.01c1.67-2.74,3.41-5.43,5.23-8.07c0.69-1.01,1.4-2.01,2.11-3
			c3.41-4.73,7.05-9.28,10.92-13.63c1.26-1.43,2.56-2.85,3.87-4.24c1.53-1.6,3.08-3.17,4.65-4.71c0.8-0.78,1.6-1.54,2.4-2.29
			c1.61-1.51,3.25-2.99,4.91-4.44c1.67-1.45,3.37-2.87,5.09-4.25c1.72-1.38,3.47-2.729,5.25-4.05c1.78-1.32,3.58-2.6,5.41-3.85
			c0.86-0.59,1.73-1.17,2.6-1.75c0.05-0.04,0.11-0.07,0.16-0.1c0.93-0.61,1.86-1.21,2.8-1.8s1.89-1.17,2.84-1.74
			c1.8-1.09,3.62-2.13,5.46-3.15c0.24-0.13,0.48-0.27,0.72-0.39c0.85-0.47,1.69-0.92,2.55-1.37c0.98-0.51,1.98-1.02,2.98-1.52
			c0.83-0.42,1.67-0.83,2.51-1.23c0.27-0.13,0.54-0.26,0.82-0.39c0.78-0.37,1.57-0.73,2.36-1.08c1.66-0.76,3.33-1.49,5.02-2.18
			c0.71-0.3,1.42-0.59,2.13-0.88c1.57-0.62,3.15-1.22,4.73-1.8c0.68-0.25,1.36-0.49,2.04-0.73c0.23-0.08,0.45-0.16,0.67-0.23
			c0.66-0.23,1.32-0.46,1.99-0.68c1.57-0.53,3.16-1.03,4.75-1.5c0.78-0.23,1.57-0.46,2.35-0.68c0.05-0.02,0.09-0.03,0.13-0.04
			c1.565-0.442,3.142-0.858,4.725-1.257c0.868-0.22,1.74-0.426,2.613-0.632c0.695-0.164,1.392-0.324,2.09-0.479
			c1.048-0.233,2.097-0.462,3.151-0.676c0.299-0.061,0.599-0.115,0.898-0.174c10.765-2.127,21.884-3.261,33.272-3.261
			c50.34,0,95.6,21.76,126.89,56.38c4.72,5.21,9.12,10.72,13.17,16.49c9.85,14.03,17.65,29.62,22.96,46.32
			c1.58-0.41,3.23-0.65,4.94-0.65h30.96c10.78,0,19.52,8.73,19.52,19.51c0,10.78-8.74,19.52-19.52,19.52h-28.42
			c0.33,4.27,0.51,8.59,0.52,12.95h27.9c10.78,0,19.52,8.73,19.52,19.51c0,10.78-8.74,19.52-19.52,19.52H428.14z"/>
		<path id="XMLID_1934_" style="fill:#32314B;" d="M164.85,344.08c4.34,60.4,17.69,115.91,37.62,162.31
			c-44.05-9.37-83.91-30.07-116.38-58.9V306.38H60.07c-4.39,0-8.44-1.44-11.69-3.88c-0.75-0.56-1.46-1.18-2.12-1.84
			c-3.53-3.53-5.71-8.4-5.71-13.79c0-5.39,2.18-10.27,5.71-13.8c0.66-0.66,1.37-1.28,2.12-1.84c0,0,0-0.01,0.01-0.01
			c0.5-0.37,1.01-0.72,1.55-1.04c0,0,0-0.01,0.01-0.01c0.53-0.32,1.08-0.62,1.65-0.89c0.93-0.45,1.91-0.83,2.93-1.13
			c0.45-0.14,0.92-0.26,1.39-0.35c0.12-0.04,0.25-0.06,0.39-0.08c0.53-0.11,1.08-0.2,1.63-0.25c0.7-0.08,1.41-0.12,2.13-0.12h26.02
			V254.4H60.07c-10.79,0-19.52-8.74-19.52-19.52c0-5.38,2.18-10.26,5.71-13.79c2.21-2.2,4.94-3.89,8-4.84c0,0,0,0,0.01,0
			c0.6-0.19,1.22-0.35,1.86-0.48c0,0,0,0,0.01,0c0.63-0.13,1.27-0.23,1.92-0.3c0.66-0.07,1.33-0.1,2.01-0.1h26.02
			c0-1.09,0.02-2.18,0.04-3.26c0.07-3.26,0.23-6.49,0.48-9.69H60.07c-4.39,0-8.44-1.44-11.69-3.88c-0.75-0.56-1.46-1.18-2.12-1.84
			c-3.53-3.53-5.71-8.41-5.71-13.8c0-10.78,8.73-19.51,19.52-19.51h30.96c1.09,0,2.15,0.11,3.18,0.28c0.35-1.08,0.7-2.15,1.07-3.22
			c2.56-7.47,5.62-14.7,9.14-21.67c0.51-1,1.02-1.99,1.55-2.98c1.56-2.95,3.21-5.84,4.93-8.69c0,0,0.01,0,0.01-0.01
			c1.67-2.74,3.41-5.43,5.23-8.07c0.69-1.01,1.4-2.01,2.11-3c3.41-4.73,7.05-9.28,10.92-13.63c1.26-1.43,2.56-2.85,3.87-4.24
			c1.53-1.6,3.08-3.17,4.65-4.71c0.8-0.78,1.6-1.54,2.4-2.29c1.61-1.52,3.25-3,4.91-4.44c1.67-1.45,3.37-2.87,5.09-4.25
			c1.72-1.39,3.47-2.74,5.25-4.06c1.78-1.32,3.58-2.6,5.41-3.84c0.86-0.59,1.73-1.17,2.6-1.75c0.05-0.04,0.11-0.07,0.16-0.1
			c0.93-0.61,1.86-1.21,2.8-1.8s1.89-1.17,2.84-1.74c1.8-1.09,3.62-2.14,5.46-3.15c0.24-0.13,0.48-0.27,0.72-0.39
			c0.85-0.47,1.69-0.92,2.55-1.37c0.98-0.51,1.98-1.02,2.98-1.52c0.83-0.42,1.67-0.83,2.51-1.23c0.27-0.13,0.54-0.26,0.82-0.39
			c0.78-0.37,1.57-0.73,2.36-1.08c1.66-0.76,3.33-1.49,5.02-2.18c0.71-0.3,1.42-0.59,2.13-0.88c1.57-0.62,3.15-1.22,4.73-1.8
			c0.68-0.25,1.36-0.49,2.04-0.73c0.23-0.08,0.45-0.16,0.67-0.23c0.66-0.23,1.32-0.46,1.99-0.68c1.57-0.52,3.16-1.02,4.75-1.5
			c0.78-0.23,1.57-0.46,2.35-0.68c0.05-0.02,0.09-0.03,0.13-0.04c5.59-1.58,11.3-2.89,17.11-3.9
			c-19.71,31.36-35.75,69.62-46.86,112.6c-1.89,7.32-3.65,14.78-5.24,22.38c-0.51,2.41-1.01,4.83-1.48,7.27
			c-0.89,4.52-1.73,9.08-2.51,13.68c-0.86,5.09-1.66,10.23-2.39,15.42c-0.65,4.56-1.24,9.15-1.77,13.78
			c-0.28,2.43-0.55,4.86-0.8,7.31c-0.6,5.79-1.11,11.64-1.54,17.53c-0.66,9.05-1.11,18.22-1.35,27.48
			c-0.15,5.32-0.22,10.67-0.22,16.05C163.31,315.54,163.83,329.94,164.85,344.08z"/>
		<g id="XMLID_520_">
			<circle id="XMLID_782_" style="fill:#4F4F74;" cx="400.845" cy="347.526" r="18.377"/>
			<circle id="XMLID_521_" style="fill:#4F4F74;" cx="400.845" cy="309.24" r="13.017"/>
		</g>
		<path id="XMLID_518_" style="fill:#366FCA;" d="M141.211,114.436l-35.099-35.099c4.727-6.743,7.509-14.948,7.509-23.807
			c0-22.939-18.596-41.535-41.535-41.535S30.552,32.591,30.552,55.53c0,22.939,18.596,41.535,41.535,41.535
			c6.447,0,12.551-1.469,17.996-4.091l36.295,36.295c4.096,4.096,10.737,4.096,14.833,0v0
			C145.307,125.173,145.307,118.532,141.211,114.436z"/>
		<path id="XMLID_517_" style="fill:#366FCA;" d="M370.789,114.436l35.099-35.099c-4.727-6.743-7.509-14.948-7.509-23.807
			c0-22.939,18.596-41.535,41.535-41.535c22.939,0,41.535,18.596,41.535,41.535c0,22.939-18.596,41.535-41.535,41.535
			c-6.447,0-12.551-1.469-17.996-4.091l-36.295,36.295c-4.096,4.096-10.737,4.096-14.833,0v0
			C366.693,125.173,366.693,118.532,370.789,114.436z"/>
		<g id="XMLID_503_">
			<circle id="XMLID_516_" style="fill:#FFFFFF;" cx="167.812" cy="207.921" r="49.559"/>
			<circle id="XMLID_515_" style="fill:#B0D46C;" cx="167.812" cy="210.663" r="29.248"/>
			<circle id="XMLID_514_" style="fill:#27273D;" cx="167.545" cy="210.663" r="21.911"/>
			<circle id="XMLID_513_" style="fill:#FFFFFF;" cx="180.59" cy="195.585" r="6.833"/>
			<circle id="XMLID_512_" style="fill:#FFFFFF;" cx="167.545" cy="210.663" r="8.245"/>
		</g>
		<g id="XMLID_373_">
			<circle id="XMLID_501_" style="fill:#FFFFFF;" cx="342.34" cy="207.921" r="49.559"/>
			<circle id="XMLID_486_" style="fill:#B0D46C;" cx="342.34" cy="210.663" r="29.248"/>
			<circle id="XMLID_376_" style="fill:#27273D;" cx="342.073" cy="210.663" r="21.911"/>
			<circle id="XMLID_375_" style="fill:#FFFFFF;" cx="355.118" cy="195.585" r="6.833"/>
			<circle id="XMLID_374_" style="fill:#FFFFFF;" cx="342.073" cy="210.663" r="8.245"/>
		</g>
		<path id="XMLID_335_" style="fill:#27273D;" d="M366.769,284.878v6.344c0,22.996-8.264,44.061-21.98,60.385
			c-17.227,20.512-43.068,33.551-71.956,33.551h-30.322c-28.889,0-54.729-13.039-71.956-33.551
			c-13.716-16.324-21.98-37.389-21.98-60.385v-6.344H366.769z"/>
		<path id="XMLID_333_" style="fill:#DB1B1B;" d="M344.789,351.608c-17.227,20.512-43.068,33.551-71.956,33.551h-30.322
			c-28.889,0-54.729-13.039-71.956-33.551c17.216-20.523,43.067-33.562,71.956-33.562h30.322
			C301.722,318.045,327.574,331.084,344.789,351.608z"/>
		<path id="XMLID_332_" style="fill:#FFFFFF;" d="M202.397,309.24L202.397,309.24c-8.27,0-14.973-6.704-14.973-14.973v-9.552h29.947
			v9.552C217.371,302.536,210.667,309.24,202.397,309.24z"/>
		<path id="XMLID_331_" style="fill:#FFFFFF;" d="M313.092,309.24L313.092,309.24c-8.27,0-14.973-6.704-14.973-14.973v-9.552h29.947
			v9.552C328.065,302.536,321.361,309.24,313.092,309.24z"/>
	</g>
</g>
</svg>
